<svg version="1.0" xmlns="http://www.w3.org/2000/svg" width="512.000000pt" height="512.000000pt" viewBox="0 0 512.000000 512.000000" preserveAspectRatio="xMidYMid meet">
<g transform="translate(0.000000,512.000000) scale(0.100000,-0.100000)" fill="#5fa3ab" stroke="none">
<path d="M390 5104 c-30 -8 -80 -26 -110 -41 -72 -35 -188 -151 -223 -223 -61
-126 -57 23 -57 -2280 0 -2303 -4 -2154 57 -2280 35 -72 151 -188 223 -223
126 -61 -23 -57 2280 -57 2303 0 2154 -4 2280 57 72 35 188 151 223 223 61
126 57 -23 57 2280 0 2303 4 2154 -57 2280 -35 72 -151 188 -223 223 -127 61
23 57 -2285 56 -1816 0 -2118 -2 -2165 -15z m3608 -1276 l2 -488 -69 0 -69 0
-28 73 c-15 39 -89 234 -164 432 l-137 360 -366 3 -367 2 2 -1627 3 -1628 195
-32 c107 -17 198 -32 203 -32 4 -1 7 -21 7 -46 l0 -45 -650 0 -650 0 0 45 c0
25 3 45 8 46 4 0 95 15 202 32 l195 32 3 1628 2 1627 -363 0 -364 0 -118 -307
c-65 -170 -140 -365 -167 -435 l-50 -128 -64 0 -64 0 0 490 0 490 1433 -2
1432 -3 3 -487z"/>
</g>
</svg>
